<?xml version="1.0" encoding="utf-8"?>
<!-- Generator: Adobe Illustrator 24.1.2, SVG Export Plug-In . SVG Version: 6.00 Build 0)  -->
<svg version="1.1" id="Camada_1" xmlns="http://www.w3.org/2000/svg" xmlns:xlink="http://www.w3.org/1999/xlink" x="0px" y="0px"
	 viewBox="0 0 72 72" style="enable-background:new 0 0 72 72;" xml:space="preserve">
<style type="text/css">
	.st0{fill-rule:evenodd;clip-rule:evenodd;fill:#FFFFFF;}
</style>
<g id="element-id-80278">
	<path id="element-id-46664" class="st0" d="M56.8,21c-3.2,0-6.3,1-8.8,2.9c1.9-2.6,3-5.7,2.9-8.9c0-4-1.5-7.8-4.4-10.6
		C43.8,1.6,40,0,36,0c-4,0-7.8,1.5-10.6,4.4C22.6,7.2,21,11,21,15c0,3.2,1,6.3,2.9,8.9c-2.6-1.9-5.7-3-8.9-2.9
		c-4,0-7.8,1.5-10.6,4.4C1.6,28.2,0,32,0,36C0,40,1.5,43.8,4.4,46.7C7.2,49.5,11,51.1,15,51h0.1c3.2,0,6.3-1,8.8-2.9
		C22,50.7,21,53.8,21,57c0,8.3,6.7,15,15,15s15-6.7,15-15v-0.1c0-3.2-1-6.3-2.9-8.9c2.6,1.9,5.7,3,8.9,2.9c8.3,0,15-6.7,15-15
		c0-4-1.5-7.8-4.4-10.6C64.7,22.5,60.9,21,56.8,21L56.8,21z M57,22.7L57,22.7c-3.2,0-6.3,1.1-8.7,3.2L48.2,26l-0.1,0.1h-0.6
		c-0.1,0-0.1,0-0.2-0.1s-0.1,0-0.1-0.1l-0.1-0.1l-1.1-1l-0.1-0.1l-0.1-0.1c0-0.1,0-0.1-0.1-0.2v-0.6c0-0.1,0-0.1,0.1-0.1l0.1-0.1
		c2.1-2.4,3.2-5.4,3.2-8.6c0.1-3.5-1.4-6.9-3.9-9.3c-2.5-2.5-5.9-4-9.4-3.9c-3.5-0.1-6.9,1.4-9.3,3.9c-2.5,2.4-3.9,5.8-3.9,9.3
		c0,3.2,1.1,6.2,3.2,8.6l0.1,0.1c0,0.1,0,0.1,0.1,0.1l0,0v0.6c0,0.1,0,0.1-0.1,0.2s0,0.1-0.1,0.1l-0.1,0.1l-1.1,1.1L24.5,26
		l-0.1,0.1c-0.1,0-0.1,0-0.2,0.1h-0.6c-0.1,0-0.1,0-0.1-0.1L23.4,26c-2.4-2.1-5.4-3.2-8.6-3.2c-3.5-0.1-6.9,1.4-9.3,3.9
		C3,29.1,1.6,32.5,1.6,36c0,3.5,1.4,6.9,3.9,9.4c2.4,2.5,5.8,3.9,9.3,3.9h0.1c3.2,0,6.2-1.1,8.6-3.2l0.1-0.1l0.1-0.1h0.6
		c0.1,0,0.1,0,0.2,0.1s0.1,0,0.1,0.1l0.1,0.1l1.1,1.1l0.1,0.1l0.1,0.1c0,0.1,0,0.1,0.1,0.2v0.6c0,0.1,0,0.1-0.1,0.1l-0.1,0.1
		c-2.1,2.4-3.2,5.4-3.2,8.6c-0.1,3.5,1.4,6.9,3.9,9.3c2.5,2.5,5.9,4,9.4,3.9c3.5,0,6.9-1.4,9.4-3.9c2.5-2.4,3.9-5.8,3.9-9.3V57
		c0-3.2-1.1-6.2-3.2-8.6L46,48.3c0-0.1,0-0.1-0.1-0.1v-0.5c0-0.1,0-0.1,0.1-0.2s0-0.1,0.1-0.1l0.1-0.1l1.1-1.1l0.1-0.1l0.1-0.1
		c0.1,0,0.1,0,0.2-0.1s0.1,0,0.2,0h0.4c0.1,0,0.1,0,0.1,0.1l0.1,0.1c2.4,2.1,5.4,3.2,8.6,3.2c3.5,0.1,6.9-1.4,9.3-3.9
		c2.5-2.4,3.9-5.8,3.9-9.3c0-3.5-1.4-6.9-3.9-9.4C63.9,24.2,60.5,22.8,57,22.7L57,22.7z M39.4,15c0,0.9-0.3,1.8-1,2.4l0,0
		c-0.1,0.1-0.1,0.2-0.2,0.3s-0.1,0.2-0.1,0.3c0,0.1,0,0.2,0.1,0.3c0,0.1,0.1,0.2,0.2,0.3l3.1,3.1l0,0l0.1,0.1
		c0.1,0.1,0.1,0.1,0.2,0.1h0.8c0.1,0,0.1,0,0.2-0.1l0.1-0.1c1.8-1.8,2.9-4.2,2.8-6.8c0-2.6-1-5-2.8-6.8c-1.8-1.8-4.2-2.9-6.8-2.8
		c-2.6,0-5,1-6.8,2.8c-1.8,1.8-2.9,4.2-2.8,6.8l0,0c0,2.6,1,5,2.8,6.8l2.4,2.4L17.4,38.4c-0.7,0.7-1.6,1-2.5,1h-0.1
		c-2.3,0-3.4-1.2-3.4-3.5s1.2-3.5,3.5-3.5c0.9,0,1.8,0.3,2.5,1l0.1,0.1c0.1,0.1,0.1,0.1,0.2,0.1h0.8c0.1,0,0.1,0,0.2-0.1l0.1-0.1
		l3.1-3.1l0,0l0.1-0.1c0.1-0.1,0.1-0.1,0.1-0.2v-0.8c0-0.1,0-0.1-0.1-0.2l-0.1-0.1c-1.8-1.8-4.2-2.9-6.8-2.8c-2.6,0-5,1-6.8,2.8
		c-1.8,1.8-2.9,4.2-2.8,6.8c0,2.6,1,5,2.8,6.8c1.8,1.8,4.2,2.9,6.8,2.8h0.1c2.5,0,5-1,6.7-2.8l2.4-2.4l14.2,14.2
		c0.7,0.7,1,1.6,1,2.5v0.1c0,2.3-1.2,3.4-3.5,3.4s-3.5-1.2-3.5-3.5c0-0.9,0.3-1.8,1-2.5l0.1-0.1c0.1-0.1,0.1-0.1,0.1-0.2v-0.8
		c0-0.1,0-0.1-0.1-0.2l-0.1-0.1l-3.1-2.7l-0.1-0.1C30.2,50,30.2,50,30.1,50h-0.8c-0.1,0-0.1,0-0.2,0.1L29,50.2
		c-1.8,1.8-2.9,4.2-2.8,6.8c0,2.6,1,5,2.8,6.8c1.8,1.8,4.2,2.9,6.8,2.8c2.6,0,5-1,6.8-2.8c1.8-1.8,2.9-4.2,2.8-6.8v-0.1
		c0-2.5-1-5-2.8-6.7l-2.4-2.4l14.2-14.2c0.7-07,1.6-1,2.5-1H57c2.3,0,3.4,1.2,3.4,3.5s-1.2,3.5-3.5,3.5c-0.9,0-1.8-0.3-2.4-1l0,0
		l-0.1-0.1c-0.1-0.1-0.1-0.1-0.2-0.1h-0.8c-0.1,0-0.1,0-0.2,0.1l-0.1,0.1l-3.1,3l-0.1,0.1c-0.1,0.1-0.1,0.1-0.1,0.2v0.8
		c0,0.1,0,0.1,0.1,0.2l0.1,0.1c1.8,1.8,4.2,2.9,6.8,2.8c2.6,0,5-1,6.8-2.8c1.8-1.8,2.9-4.2,2.8-6.8c0-2.6-1-5-2.8-6.8
		c-1.8-1.8-4.2-2.9-6.8-2.8h-0.1c-2.5,0-5,1-6.7,2.8l-2.5,2.4l-14-14.4c-0.7-0.6-1-1.5-1-2.4c0-2.3,1.2-3.5,3.5-3.5
		S39.4,12.7,39.4,15L39.4,15z M35.9,28.5l-7.4,7.4l7.4,7.4l7.4-7.4L35.9,28.5z"/>
</g>
</svg>
