<?xml version="1.0" encoding="utf-8"?>
<!-- Generator: Adobe Illustrator 24.1.2, SVG Export Plug-In . SVG Version: 6.00 Build 0)  -->
<svg version="1.1" id="Camada_1" xmlns:mydata="http://www.w3.org/2000/svg"
	 xmlns="http://www.w3.org/2000/svg" xmlns:xlink="http://www.w3.org/1999/xlink" x="0px" y="0px" viewBox="0 0 420 71.7"
	 style="enable-background:new 0 0 420 71.7;" xml:space="preserve">
<style type="text/css">
	.st0{fill:#005F83;}
	.st1{fill-rule:evenodd;clip-rule:evenodd;fill:#005F83;}
</style>
<g>
	<g>
		<g id="element-id-26776">
			<path id="element-id-40166" class="st0" d="M101.4,61.5l0.7-1.7l0.7,1.7H101.4z M103.7,62.8l-1.6-3.9l-1.6,3.9h0.4l0.4-1h1.6
				l0.4,1H103.7z"/>
			<path id="element-id-35851" class="st0" d="M114,62.8h0.4l-0.8-3.8l-1.2,3.1l-1.2-3.1l-0.8,3.8h0.4l0.6-2.6l1.1,2.8l1.1-2.8
				L114,62.8z"/>
			<path id="element-id-11917" class="st0" d="M120,62.8v-0.3h-1.8v-1.3h1.7v-0.4h-1.7v-1.3h1.8v-0.3h-2.1v3.6L120,62.8z"/>
			<path id="element-id-11180" class="st0" d="M123.8,62.4v-3.2h-0.4v3.6h0.2h0.2h1.3v-0.4H123.8z"/>
			<path id="element-id-52797" class="st0" d="M128.5,62.8v-1.6h1.6v1.6h0.4v-3.6h-0.4v1.6h-1.6v-1.6h-0.4v3.6H128.5z"/>
			<path id="element-id-90886" class="st0" d="M137.5,61c0,0.4-0.1,0.8-0.4,1.1c-0.3,0.3-0.6,0.4-1.1,0.4c-0.4,0-0.8-0.1-1-0.4
				c-0.3-0.3-0.4-0.6-0.4-1.1c0-0.4,0.1-0.8,0.4-1c0.3-0.3,0.6-0.4,1-0.4c0.4,0,0.8,0.1,1.1,0.4C137.4,60.2,137.5,60.6,137.5,61z
				 M137.9,61c0-0.3,0-0.5-0.1-0.7s-0.2-0.4-0.4-0.6c-0.2-0.2-0.4-0.3-0.6-0.4c-0.2-0.1-0.5-0.1-0.7-0.1c-0.3,0-0.5,0-0.7,0.1
				c-0.2,0.1-0.4,0.2-0.6,0.4s-0.3,0.4-0.4,0.6s-0.1,0.5-0.1,0.7s0,0.5,0.1,0.7s0.2,0.4,0.4,0.6c0.2,0.2,0.4,0.3,0.6,0.4
				s0.5,0.1,0.7,0.1c0.3,0,0.5,0,0.7-0.1c0.2-0.1,0.4-0.2,0.6-0.4c0.2-0.2,0.3-0.4,0.4-0.6C137.8,61.5,137.9,61.3,137.9,61z"/>
			<path id="element-id-57008" class="st0" d="M141.9,61v-1.5h0.8c0.2,0,0.4,0.1,0.5,0.2c0.1,0.1,0.2,0.3,0.2,0.5s-0.1,0.4-0.2,0.5
				c-0.1,0.1-0.3,0.2-0.5,0.2L141.9,61z M143.8,60.3c0-0.3-0.1-0.6-0.3-0.8c-0.2-0.2-0.5-0.3-0.8-0.3h-1.2v3.6h0.4v-1.4h0.4l1.1,1.4
				h0.5l-1.1-1.4c0.3,0,0.5-0.1,0.7-0.3C143.7,60.9,143.8,60.6,143.8,60.3L143.8,60.3z"/>
			<path id="element-id-65205" class="st0" d="M151.7,61.1c0.5,0.1,0.8,0.2,1,0.4c0.1,0.1,0.2,0.2,0.2,0.4s0,0.3-0.1,0.4
				c-0.2,0.2-0.4,0.3-0.8,0.3c-0.6,0-0.9-0.2-1-0.6h-0.4c0.1,0.6,0.6,0.9,1.4,0.9c0.4,0,0.7-0.1,0.9-0.2c0.3-0.2,0.4-0.5,0.4-0.8
				c0-0.3-0.1-0.5-0.3-0.7c-0.2-0.1-0.4-0.2-0.8-0.3s-0.6-0.2-0.7-0.2c-0.2-0.1-0.4-0.3-0.4-0.5c0-0.1,0-0.2,0.1-0.3
				c0.1-0.2,0.4-0.3,0.7-0.3c0.5,0,0.8,0.2,0.8,0.5h0.4c-0.1-0.5-0.5-0.8-1.3-0.8c-0.3,0-0.6,0.1-0.8,0.3s-0.4,0.4-0.4,0.8
				C150.6,60.6,150.9,60.9,151.7,61.1L151.7,61.1z"/>
			<path id="element-id-7599" class="st0" d="M159.9,61c0,0.4-0.1,0.8-0.4,1.1c-0.3,0.3-0.6,0.4-1.1,0.4c-0.4,0-0.8-0.1-1-0.4
				c-0.3-0.3-0.4-0.6-0.4-1.1c0-0.4,0.1-0.8,0.4-1c0.3-0.3,0.6-0.4,1-0.4c0.4,0,0.8,0.1,1.1,0.4C159.7,60.2,159.9,60.6,159.9,61z
				 M160.2,61c0-0.3,0-0.5-0.1-0.7s-0.2-0.4-0.4-0.6c-0.2-0.2-0.4-0.3-0.6-0.4c-0.2-0.1-0.5-0.1-0.7-0.1c-0.3,0-0.5,0-0.7,0.1
				c-0.2,0.1-0.4,0.2-0.6,0.4s-0.3,0.4-0.4,0.6s-0.1,0.5-0.1,0.7s0,0.5,0.1,0.7s0.2,0.4,0.4,0.6c0.2,0.2,0.4,0.3,0.6,0.4
				s0.5,0.1,0.7,0.1c0.3,0,0.5,0,0.7-0.1c0.2-0.1,0.4-0.2,0.6-0.4c0.2-0.2,0.3-0.4,0.4-0.6C160.2,61.5,160.2,61.3,160.2,61z"/>
			<path id="element-id-20998" class="st0" d="M164.1,62.4v-3.2h-0.4v3.6h0.2h0.2h1.3v-0.4H164.1z"/>
			<path id="element-id-49288" class="st0" d="M171.1,61.6v-2.4h-0.4v2.5c0,0.1,0,0.3-0.1,0.4c-0.2,0.3-0.5,0.4-0.9,0.4
				c-0.3,0-0.5-0.1-0.7-0.2c-0.2-0.1-0.3-0.4-0.3-0.6v-2.5h-0.4v2.4c0,0.4,0.1,0.7,0.4,0.9c0.2,0.2,0.6,0.3,1,0.3
				c0.4,0,0.7-0.1,1-0.3C171,62.3,171.1,62,171.1,61.6z"/>
			<path id="element-id-86970" class="st0" d="M178.2,61.7h-0.4c-0.1,0.2-0.3,0.4-0.5,0.6c-0.2,0.1-0.5,0.2-0.7,0.2
				c-0.4,0-0.7-0.1-1-0.4c-0.3-0.3-0.4-0.6-0.4-1c0-0.4,0.1-0.7,0.4-1c0.1-0.1,0.3-0.2,0.5-0.3s0.3-0.1,0.5-0.1s0.3,0,0.4,0.1
				c0.4,0.1,0.7,0.4,0.9,0.7h0.4c-0.1-0.3-0.4-0.6-0.7-0.8c-0.3-0.2-0.6-0.3-1-0.3c-0.5,0-0.9,0.2-1.3,0.6c-0.2,0.2-0.3,0.4-0.4,0.6
				c-0.1,0.2-0.1,0.5-0.1,0.7c0,0.5,0.2,0.9,0.5,1.3c0.3,0.3,0.6,0.5,1,0.5l-0.2,0.5c0.1,0,0.1,0,0.2,0s0.2,0,0.2,0
				c0.2,0,0.3,0.1,0.2,0.3c0,0.1-0.1,0.2-0.3,0.2c-0.2,0-0.4,0-0.6-0.1l-0.1,0.3c0.2,0.1,0.5,0.1,0.7,0.1c0.3,0,0.4-0.2,0.5-0.3
				c0.1-0.2,0.1-0.3,0-0.5c0-0.1-0.1-0.1-0.2-0.2c-0.1,0-0.1-0.1-0.2-0.1c-0.1,0-0.1,0-0.1,0l0.1-0.2c0.3,0,0.7-0.1,1-0.3
				C177.8,62.3,178,62.1,178.2,61.7L178.2,61.7z"/>
			<path id="element-id-94128" class="st0" d="M182.3,61.5l0.7-1.7l0.7,1.7H182.3z M184.5,62.8l-1.6-3.9l-1.6,3.9h0.4l0.4-1h1.6
				l0.4,1H184.5z M182,58.8h0.3c0-0.1,0-0.1,0-0.2c0-0.1,0.1-0.2,0.2-0.2c0.1,0,0.1,0,0.2,0.1s0.1,0.1,0.1,0.1s0.1,0.1,0.2,0.1
				c0.1,0,0.2,0.1,0.3,0.1s0.2,0,0.3-0.1c0.1-0.1,0.2-0.3,0.2-0.6h-0.3c0,0.1,0,0.2,0,0.3c0,0,0,0.1-0.1,0.1s-0.1,0-0.1,0
				s-0.1,0-0.2-0.1s-0.1-0.1-0.1-0.1s-0.1-0.1-0.2-0.1c-0.1,0-0.2-0.1-0.3-0.1s-0.2,0-0.3,0.1C182.1,58.4,182,58.6,182,58.8
				L182,58.8z"/>
			<path id="element-id-16968" class="st0" d="M191.2,61c0,0.4-0.1,0.8-0.4,1.1s-0.6,0.4-1.1,0.4c-0.4,0-0.8-0.1-1-0.4
				c-0.3-0.3-0.4-0.6-0.4-1.1c0-0.4,0.1-0.8,0.4-1c0.3-0.3,0.6-0.4,1-0.4c0.4,0,0.8,0.1,1.1,0.4C191,60.2,191.2,60.6,191.2,61z
				 M191.6,61c0-0.3,0-0.5-0.1-0.7s-0.2-0.4-0.4-0.6s-0.4-0.3-0.6-0.4c-0.2-0.1-0.5-0.1-0.7-0.1c-0.3,0-0.5,0-0.7,0.1
				c-0.2,0.1-0.4,0.2-0.6,0.4s-0.3,0.4-0.4,0.6s-0.1,0.5-0.1,0.7s0,0.5,0.1,0.7s0.2,0.4,0.4,0.6c0.2,0.2,0.4,0.3,0.6,0.4
				s0.5,0.1,0.7,0.1c0.3,0,0.5,0,0.7-0.1c0.2-0.1,0.4-0.2,0.6-0.4c0.2-0.2,0.3-0.4,0.4-0.6C191.5,61.5,191.6,61.3,191.6,61z"/>
			<path id="element-id-6415" class="st0" d="M199.1,61v-1.5h0.8c0.2,0,0.4,0.1,0.5,0.2c0.1,0.1,0.2,0.3,0.2,0.5s-0.1,0.4-0.2,0.5
				c-0.1,0.1-0.3,0.2-0.5,0.2H199.1z M201.1,60.3c0-0.3-0.1-0.6-0.3-0.8c-0.2-0.2-0.5-0.3-0.8-0.3h-1.2v3.6h0.4v-1.4h0.8
				c0.3,0,0.6-0.1,0.8-0.3C200.9,60.9,201.1,60.6,201.1,60.3L201.1,60.3z"/>
			<path id="element-id-80497" class="st0" d="M204.3,61.5l0.7-1.7l0.7,1.7H204.3z M206.6,62.8L205,59l-1.6,3.9h0.4l0.4-1h1.6l0.4,1
				H206.6z"/>
			<path id="element-id-98662" class="st0" d="M210.2,61v-1.5h0.8c0.2,0,0.4,0.1,0.5,0.2c0.1,0.1,0.2,0.3,0.2,0.5s-0.1,0.4-0.2,0.5
				c-0.1,0.1-0.3,0.2-0.5,0.2L210.2,61z M212.1,60.3c0-0.3-0.1-0.6-0.3-0.8c-0.2-0.2-0.5-0.3-0.8-0.3h-1.2v3.6h0.4v-1.4h0.4l1.1,1.4
				h0.5l-1.1-1.4c0.3,0,0.5-0.1,0.7-0.3C212,60.9,212.1,60.6,212.1,60.3L212.1,60.3z"/>
			<path id="element-id-75563" class="st0" d="M216,61.5l0.7-1.7l0.7,1.7H216z M218.3,62.8l-1.6-3.9l-1.6,3.9h0.4l0.4-1h1.6l0.4,1
				H218.3z"/>
			<path id="element-id-37040" class="st0" d="M225.7,61.5l0.7-1.7l0.7,1.7H225.7z M228,62.8l-1.6-3.9l-1.6,3.9h0.4l0.4-1h1.6l0.4,1
				H228z"/>
			<path id="element-id-321" class="st0" d="M238.6,61.1h-1.9v0.3h1.5c-0.1,0.3-0.3,0.6-0.6,0.8s-0.6,0.3-0.9,0.3
				c-0.4,0-0.8-0.1-1.1-0.4c-0.3-0.3-0.4-0.6-0.4-1.1c0-0.4,0.1-0.8,0.4-1.1c0.3-0.3,0.6-0.4,1.1-0.4c0.3,0,0.6,0.1,0.8,0.3
				c0.3,0.2,0.4,0.4,0.5,0.7h0.4c-0.1-0.4-0.3-0.7-0.7-1c-0.3-0.2-0.7-0.4-1.1-0.4c-0.2,0-0.5,0-0.7,0.1c-0.2,0.1-0.4,0.2-0.6,0.4
				s-0.3,0.4-0.4,0.6c-0.1,0.2-0.1,0.5-0.1,0.7s0,0.5,0.1,0.7s0.2,0.4,0.4,0.6s0.4,0.3,0.6,0.4c0.2,0.1,0.5,0.1,0.7,0.1
				c0.4,0,0.8-0.1,1.2-0.4s0.6-0.6,0.6-1.1L238.6,61.1z"/>
			<path id="element-id-45917" class="st0" d="M244.3,62.8v-0.3h-1.8v-1.3h1.7v-0.4h-1.7v-1.3h1.8v-0.3h-2.1v3.6L244.3,62.8z"/>
			<path id="element-id-86689" class="st0" d="M248.9,61.1c0.5,0.1,0.8,0.2,1,0.4c0.1,0.1,0.2,0.2,0.2,0.4s0,0.3-0.1,0.4
				c-0.2,0.2-0.4,0.3-0.8,0.3c-0.6,0-0.9-0.2-1-0.6h-0.4c0.1,0.6,0.6,0.9,1.4,0.9c0.4,0,0.7-0.1,0.9-0.2c0.3-0.2,0.4-0.5,0.4-0.8
				c0-0.3-0.1-0.5-0.3-0.7c-0.2-0.1-0.4-0.2-0.8-0.3c-0.4-0.1-0.6-0.2-0.7-0.2c-0.2-0.1-0.4-0.3-0.4-0.5c0-0.1,0-0.2,0.1-0.3
				c0.1-0.2,0.4-0.3,0.7-0.3c0.5,0,0.8,0.2,0.8,0.5h0.4c-0.1-0.5-0.5-0.8-1.3-0.8c-0.3,0-0.6,0.1-0.8,0.3s-0.4,0.4-0.4,0.8
				C247.8,60.6,248.2,60.9,248.9,61.1L248.9,61.1z"/>
			<path id="element-id-29383" class="st0" d="M253.3,59.5h0.9v3.3h0.4v-3.3h0.9v-0.3h-0.9h-0.4h-0.9V59.5z"/>
			<path id="element-id-10389" class="st0" d="M259.1,61.5l0.7-1.7l0.7,1.7H259.1z M261.4,62.8l-1.6-3.9l-1.6,3.9h0.4l0.4-1h1.6
				l0.4,1H261.4z M258.9,58.8h0.3c0-0.1,0-0.1,0-0.2c0-0.1,0.1-0.2,0.2-0.2c0.1,0,0.1,0,0.2,0.1c0,0,0.1,0.1,0.1,0.1
				s0.1,0.1,0.2,0.1s0.2,0.1,0.3,0.1s0.2,0,0.3-0.1c0.1-0.1,0.2-0.3,0.2-0.6h-0.3c0,0.1,0,0.2,0,0.3c0,0,0,0.1-0.1,0.1
				c0,0-0.1,0-0.1,0s-0.1,0-0.2-0.1s-0.1-0.1-0.1-0.1s-0.1-0.1-0.2-0.1s-0.2-0.1-0.3-0.1s-0.2,0-0.3,0.1
				C259,58.4,258.9,58.6,258.9,58.8L258.9,58.8z"/>
			<path id="element-id-16405" class="st0" d="M268.1,61c0,0.4-0.1,0.8-0.4,1.1c-0.3,0.3-0.6,0.4-1.1,0.4c-0.4,0-0.8-0.1-1-0.4
				c-0.3-0.3-0.4-0.6-0.4-1.1c0-0.4,0.1-0.8,0.4-1c0.3-0.3,0.6-0.4,1-0.4c0.4,0,0.8,0.1,1.1,0.4C267.9,60.2,268.1,60.6,268.1,61z
				 M268.4,61c0-0.3,0-0.5-0.1-0.7s-0.2-0.4-0.4-0.6s-0.4-0.3-0.6-0.4c-0.2-0.1-0.5-0.1-0.7-0.1s-0.5,0-0.7,0.1s-0.4,0.2-0.6,0.4
				s-0.3,0.4-0.4,0.6s-0.1,0.5-0.1,0.7s0,0.5,0.1,0.7s0.2,0.4,0.4,0.6s0.4,0.3,0.6,0.4s0.5,0.1,0.7,0.1s0.5,0,0.7-0.1
				s0.4-0.2,0.6-0.4s0.3-0.4,0.4-0.6C268.4,61.5,268.4,61.3,268.4,61z"/>
			<path id="element-id-13486" class="st0" d="M278.5,61c0-0.3,0-0.5-0.1-0.7s-0.2-0.4-0.4-0.6s-0.4-0.3-0.6-0.4s-0.5-0.1-0.7-0.1
				h-0.9v3.6h0.9c0.3,0,0.5,0,0.7-0.1s0.4-0.2,0.6-0.4s0.3-0.3,0.4-0.6S278.5,61.3,278.5,61L278.5,61z M278.2,61
				c0,0.4-0.1,0.8-0.4,1c-0.3,0.3-0.6,0.4-1.1,0.4h-0.6v-2.9h0.6c0.4,0,0.8,0.1,1.1,0.4C278,60.3,278.2,60.6,278.2,61L278.2,61z"/>
			<path id="element-id-85101" class="st0" d="M282.3,61.5l0.7-1.7l0.7,1.7H282.3z M284.5,62.8L283,59l-1.6,3.9h0.4l0.4-1h1.6l0.4,1
				H284.5z"/>
			<path id="element-id-71072" class="st0" d="M292.4,61.1c0.5,0.1,0.8,0.2,1,0.4c0.1,0.1,0.2,0.2,0.2,0.4s0,0.3-0.1,0.4
				c-0.2,0.2-0.4,0.3-0.8,0.3c-0.6,0-0.9-0.2-1-0.6h-0.4c0.1,0.6,0.6,0.9,1.4,0.9c0.4,0,0.7-0.1,0.9-0.2c0.3-0.2,0.4-0.5,0.4-0.8
				c0-0.3-0.1-0.5-0.3-0.7c-0.2-0.1-0.4-0.2-0.8-0.3c-0.4-0.1-0.6-0.2-0.7-0.2c-0.2-0.1-0.4-0.3-0.4-0.5c0-0.1,0-0.2,0.1-0.3
				c0.1-0.2,0.4-0.3,0.7-0.3c0.5,0,0.8,0.2,0.8,0.5h0.4c-0.1-0.5-0.5-0.8-1.3-0.8c-0.3,0-0.6,0.1-0.8,0.3s-0.4,0.4-0.4,0.8
				C291.3,60.6,291.6,60.9,292.4,61.1L292.4,61.1z"/>
			<path id="element-id-88576" class="st0" d="M297.8,61.5l0.7-1.7l0.7,1.7H297.8z M300,62.8l-1.6-3.9l-1.6,3.9h0.4l0.4-1h1.6l0.4,1
				H300z"/>
			<path id="element-id-86816" class="st0" d="M306,61.6v-2.4h-0.4v2.5c0,0.1,0,0.3-0.1,0.4c-0.2,0.3-0.5,0.4-0.9,0.4
				c-0.3,0-0.5-0.1-0.7-0.2c-0.2-0.1-0.3-0.4-0.3-0.6v-2.5h-0.4v2.4c0,0.4,0.1,0.7,0.4,0.9c0.2,0.2,0.6,0.3,1,0.3
				c0.4,0,0.7-0.1,1-0.3C305.8,62.3,306,62,306,61.6z M305.4,58.1h-0.5l-0.4,0.8h0.3L305.4,58.1z"/>
			<path id="element-id-70189" class="st0" d="M312.4,61c0-0.3,0-0.5-0.1-0.7s-0.2-0.4-0.4-0.6s-0.4-0.3-0.6-0.4s-0.5-0.1-0.7-0.1
				h-0.9v3.6h0.9c0.3,0,0.5,0,0.7-0.1s0.4-0.2,0.6-0.4s0.3-0.3,0.4-0.6S312.4,61.3,312.4,61L312.4,61z M312.1,61
				c0,0.4-0.1,0.8-0.4,1c-0.3,0.3-0.6,0.4-1.1,0.4H310v-2.9h0.6c0.4,0,0.8,0.1,1.1,0.4C311.9,60.3,312.1,60.6,312.1,61L312.1,61z"/>
			<path id="element-id-84000" class="st0" d="M318,62.8v-0.3h-1.8v-1.3h1.7v-0.4h-1.7v-1.3h1.8v-0.3h-2.1v3.6L318,62.8z"/>
			<path id="element-id-29400" class="st0" d="M325.5,61v-1.5h0.8c0.2,0,0.4,0.1,0.5,0.2c0.1,0.1,0.2,0.3,0.2,0.5s-0.1,0.4-0.2,0.5
				c-0.1,0.1-0.3,0.2-0.5,0.2H325.5z M327.4,60.3c0-0.3-0.1-0.6-0.3-0.8c-0.2-0.2-0.5-0.3-0.8-0.3h-1.2v3.6h0.4v-1.4h0.8
				c0.3,0,0.6-0.1,0.8-0.3C327.3,60.9,327.4,60.6,327.4,60.3L327.4,60.3z"/>
			<path id="element-id-79786" class="st0" d="M333.3,61.6v-2.4h-0.4v2.5c0,0.1,0,0.3-0.1,0.4c-0.2,0.3-0.5,0.4-0.9,0.4
				c-0.3,0-0.5-0.1-0.7-0.2c-0.2-0.1-0.3-0.4-0.3-0.6v-2.5h-0.4v2.4c0,0.4,0.1,0.7,0.4,0.9c0.2,0.2,0.6,0.3,1,0.3
				c0.4,0,0.7-0.1,1-0.3C333.1,62.3,333.3,62,333.3,61.6z M332.7,58.1h-0.5l-0.4,0.8h0.3L332.7,58.1z"/>
			<path id="element-id-9892" class="st0" d="M339.2,61.8c0-0.3-0.1-0.5-0.2-0.6c-0.1-0.2-0.3-0.3-0.5-0.3c0.1-0.1,0.2-0.2,0.3-0.3
				c0-0.1,0.1-0.1,0.1-0.2s0-0.2,0-0.3c0-0.1,0-0.2-0.1-0.4c-0.2-0.3-0.5-0.5-1-0.5h-1v3.6h1.1c0.4,0,0.7-0.1,0.9-0.3
				c0.1-0.1,0.2-0.2,0.3-0.3C339.1,62.1,339.2,62,339.2,61.8L339.2,61.8z M338.5,60.1c0,0.2-0.1,0.3-0.2,0.4s-0.3,0.1-0.5,0.1h-0.7
				v-1.1h0.6C338.3,59.6,338.5,59.7,338.5,60.1L338.5,60.1z M338.8,61.7c0,0.2-0.1,0.4-0.2,0.5c-0.1,0.1-0.3,0.2-0.6,0.2h-0.8v-1.4
				h0.9c0.2,0,0.4,0.1,0.5,0.2c0.1,0.1,0.1,0.1,0.2,0.2C338.8,61.5,338.8,61.6,338.8,61.7L338.8,61.7z"/>
			<path id="element-id-98828" class="st0" d="M342.6,62.4v-3.2h-0.4v3.6h0.2h0.2h1.3v-0.4H342.6z"/>
			<path id="element-id-62551" class="st0" d="M346.9,62.8v-3.6h-0.4v3.6H346.9z"/>
			<path id="element-id-18731" class="st0" d="M353.6,61.7h-0.4c-0.1,0.2-0.3,0.4-0.5,0.6s-0.5,0.2-0.7,0.2c-0.4,0-0.7-0.1-1-0.4
				c-0.3-0.3-0.4-0.6-0.4-1c0-0.4,0.1-0.7,0.4-1c0.1-0.1,0.3-0.2,0.5-0.3s0.3-0.1,0.5-0.1s0.3,0,0.4,0.1c0.4,0.1,0.7,0.4,0.9,0.7
				h0.4c-0.1-0.3-0.4-0.6-0.7-0.8c-0.3-0.2-0.6-0.3-1-0.3c-0.5,0-0.9,0.2-1.3,0.6c-0.2,0.2-0.3,0.4-0.4,0.6
				c-0.1,0.2-0.1,0.5-0.1,0.7c0,0.5,0.2,0.9,0.5,1.3c0.4,0.4,0.8,0.6,1.3,0.6c0.4,0,0.7-0.1,1-0.3C353.3,62.3,353.5,62.1,353.6,61.7
				L353.6,61.7z"/>
			<path id="element-id-25138" class="st0" d="M357.4,61.5l0.7-1.7l0.7,1.7H357.4z M359.6,62.8L358,59l-1.6,3.9h0.4l0.4-1h1.6l0.4,1
				H359.6z"/>
		</g>
		<g id="element-id-89789">
			<path id="element-id-69349" class="st0" d="M122.5,30.8c5.8-0.5,13.2-7,16.1-11.7c3.2-5.3,1.6-9.6-2.7-11
				C112.5,0.5,86,52.6,109.8,55.1c9.3,0.9,19.8-9.3,26.2-15.5c2.8-2.7,5.4-5.4,7.9-8.2c0.7-0.9-0.4-1.8-1.1-1
				c-1.9,2.2-3.9,4.3-5.9,6.3c-5.7,5.7-17.4,18.1-26.6,16.5c-14.3-2.5,8.6-44.8,25-42.6c3.5,0.4,4.8,3.4,1.6,8.4
				c-2.7,4.1-9.9,10.2-14.5,10.4C121.3,29.4,121.4,30.8,122.5,30.8z"/>
			<path id="element-id-83424" class="st0" d="M148.9,30.4c5.5-1.8,11.2-7.7,14.2-12.4c1.2-1.8,1.8-4.3,1.3-5.7c-0.8-2-3.7-2.6-6-2
				c-6.9,1.6-13.4,12-15.6,19.1c-1.7,6.1,0.7,10.3,5.7,10.4c3.7,0,6.6-1.7,9.1-4c1.5-1.3,2.9-3,4.2-4.6c0.6-0.7-0.6-1.5-1.2-0.8
				c-1,1-2.6,2.7-4.1,4.1c-1.8,1.7-5,4.1-7.3,2.8c-1.7-1-1.1-3.7-0.4-6.1L148.9,30.4L148.9,30.4z M151.7,24.2l1.6-2.8
				c0.8-1.3,1.7-2.5,2.6-3.6c1.2-1.4,4.6-5.3,6.9-4.4l0.2,0.2c0.6,1.5-1.3,3.8-2.1,4.9c-2.5,3.6-7.1,8.1-11.3,10
				C150.3,26.7,151.2,25.1,151.7,24.2L151.7,24.2z"/>
			<path id="element-id-21586" class="st0" d="M168.6,21.7c-0.9-0.3-2.4-0.3-2.9-0.1c-1.1,0.4-1.5,1.8-1.4,3
				c0.1,0.9,1.3,0.9,2.6,0.9C168,25.4,170.7,22.3,168.6,21.7L168.6,21.7z M160.5,29.3c-1.5,2.4-4.4,7.2-0.7,8.7
				c5.6,2.3,11.6-2.2,16.6-6.5c0.7-0.6,0-1.9-0.7-1.3c-4.1,3.6-10.5,7.6-11,5.8c-0.6-2,1.1-4.3,2.2-5.9
				C167.6,28.3,161.7,27.5,160.5,29.3L160.5,29.3z"/>
			<path id="element-id-69932" class="st0" d="M180.8,36.1c1.2-1.4,2.8-3,4.4-4c2.2-1.3,2.5-0.5,2.4,0.7c-0.2,1.7-0.2,3.4,2.8,3.6
				c3.3,0.3,6.1-3,8.5-4.7c0.9-0.6,0.2-1.8-0.8-1.3c-1.3,1.1-5.5,5-7.6,4.4c-0.4-0.1-0.6-0.6-0.5-1.6c0.4-2.9-0.7-5.4-5.5-2.5
				c-1.1,0.7-2,1.5-2.9,2.4l1.2-4.6c0.4-1-5.9-2.1-6.3-1.1c-1.3,3.2-2.2,5.7-2.2,8.3C174,37.3,180.1,37.8,180.8,36.1L180.8,36.1z"/>
			<path id="element-id-81282" class="st0" d="M206.3,21.7c-0.9-0.3-2.4-0.3-2.9-0.1c-1.1,0.4-1.5,1.8-1.4,3
				c0.1,0.9,1.3,0.9,2.6,0.9C205.6,25.4,208.3,22.3,206.3,21.7L206.3,21.7z M198.2,29.3c-1.5,2.4-4.4,7.2-0.7,8.7
				c5.6,2.3,11.6-2.2,16.6-6.5c0.7-0.6,0-1.9-0.7-1.3c-4.1,3.6-10.5,7.6-11,5.8c-0.6-2,1.1-4.3,2.2-5.9
				C205.2,28.3,199.3,27.5,198.2,29.3z"/>
			<path id="element-id-52337" class="st0" d="M223.3,30.3c-0.4,0.8,0.4,1.5,1.1,1c1-1.3,2-2.8,1.8-4.3c-0.3-1.8-2.5-2.3-4.9-2.1
				c-4.6,0.4-8.5,2.8-8.6,7.7c-0.1,2.3,1.1,4.4,3.9,5.1c5.2,1.2,13.9-2.4,17.2-6.4c0.7-0.9-0.4-1.8-1.1-1c-2.9,2.9-9.5,6.7-13.4,5.4
				c-3.9-1.3,2-8.6,4.1-8.8c0.9-0.1,1.2,0.3,1.2,0.8C224.6,28.5,223.7,29.7,223.3,30.3L223.3,30.3z"/>
			<path id="element-id-7633" class="st0" d="M243,29c-2.6-2.4-7.5-0.9-10,0.9c-1.1,0.8-2.2,2.7-1.6,4.1c1.1,2.9,5.2,0.9,7.6-0.5
				c0.4-0.2,3.6-2,5-2.6c-0.1,1.2-0.6,2.4-0.5,3.6c0,0.4,0.1,0.7,0.2,1.1c0.5,1.6,2.8,2.6,4.7,2.6c5.5,0.2,10.7-4.3,13.3-7
				c0.4-0.9-0.5-1.5-1.2-1c-2.4,2.4-10.2,8.3-10.2,3.9c0-1.4,0.7-2.9,0.4-4.3c-0.8-2.5-5.1-1.3-7.4-0.4
				C243.2,29.3,243.1,29.2,243,29L243,29z M238.2,32.3c-2.1,1.2-4.4,2.2-4.9,1.3c-1.2-2.4,6.1-5,8.1-3.9l0.4,0.4
				C241.4,30.3,239.9,31.4,238.2,32.3L238.2,32.3z"/>
			<path id="element-id-13933" class="st0" d="M282.8,43.6c0.7-6.5,3.7-15.4,6.7-21.4c0.5-0.9,3.4-6.2,5-6.4c0.8,2.6,0.4,7.1,0.1,10
				c-0.2,1.4-0.2,2.9-0.2,4.3c-0.1,2.2,0.6,8,3.8,4.1c0.8-0.9,0.8-1.2,1.7-2.6c3.1-4.9,5.5-10.1,8.9-14.8c0.8-1.1,4.3-6,5.8-5.4
				c0.5,1-0.1,2.1-0.3,3c-0.6,2.3-1.9,5.4-2.8,7.7l-2.9,7.7c-0.9,2.4-1,2.7-1.8,5.2c-1.4,4.5-4.5,13.5,0.3,17c0.8,0.4,1.5-0.4,1-1.2
				c-3.1-2.3-2-7.2-1.2-10.5c0.7-2.5,1.4-5,2.3-7.5c1-3,2.3-6,3.4-9.1c1.1-3.2,3-7,3.6-10.3c0.5-2.7-0.5-4.7-3.5-3
				c-1.9,1-3.8,3.7-5.1,5.5s-2.4,3.6-3.6,5.5c-1.7,2.8-3.2,5.8-4.9,8.7c-0.7,1.2-1.4,2.9-2.7,3.7c-0.7-0.6-0.5-3.8-0.5-4.7
				c0-1.1,0.1-2.1,0.2-3.2c0.3-3.1,0.8-7.5,0.3-10.7c-0.5-3.1-7.9-3.2-10.1,0.4c-0.5,0.8-1,1.4-1.5,2.3c-0.9,1.6-1.8,3.3-2.6,5
				c-1.2,2.6-2.2,5.4-3.1,8.2c-1.3,3.8-2.5,7.9-2.9,11.9C275.8,45.8,282,46,282.8,43.6L282.8,43.6z"/>
			<path id="element-id-30163" class="st0" d="M326.3,27.6c-1.1-1.1-5.4-2-8.8,0.5c-1.7,1.3-4,4-2.3,7.4c1.6,3.1,7.4,2.8,9,2.5
				c3.7-0.8,6.1-3.4,9.2-6.6c0.8-0.8-0.2-1.8-0.9-1.1c-3.6,3.4-5.3,5.5-8.5,6.1c-2.6,0.5-3.4-0.7-3.4-1.9c0-0.5,0.2-1.2,0.5-1.8
				C323.5,35,328.7,29.9,326.3,27.6L326.3,27.6z M323.2,29.6c0.5-0.5,1.2-1.3,1.9-1.1c0.6,0.2-0.2,1.7-0.4,1.9
				c-0.6,0.7-2,1.8-2.7,0.9c-0.1,0-0.1-0.1-0.1-0.1C322.3,30.7,322.7,30.2,323.2,29.6L323.2,29.6z M324.5,18.2
				c-1,1.7-1.6,2.8-2.6,3.9c-0.7,0.8,0.5,1.7,1.4,1.1c0.9-0.7,2.4-2.4,3.3-3.9C327,18.4,324.9,17.3,324.5,18.2L324.5,18.2z"/>
			<path id="element-id-33919" class="st0" d="M338.5,28.6c-1.2-1.2-2.6-1.2-3.8-0.5c-3.1,1.7-6.1,7.6-1.3,8.9
				c2.2,0.6,4.6-1.1,6.2-2.6c0.3,0.6,0.5,1.1,0.9,1.6c1.9,2.7,5.4,4,8.5,3.5c3.7-0.6,6.4-5.5,8.7-8.4c0.6-0.8-0.7-1.5-1.3-0.8
				c-1.6,1.9-5.4,7.6-7.6,7.4c-0.7-0.1-1.2-0.2-1.6-0.6c-1.8-1.8-2.2-4.6-1.7-7.6c4.1-3.3,8.7-7,11-10.8c0.8-1.2,1.7-2.8,2.1-4.3
				c1.2-5-5.1-5.2-8.2-3.8c-2.3,1-4.2,3.1-5.7,5c-2.4,3-5.1,8.6-5.5,13.6L338.5,28.6z M350.8,16.6c1.1-1.4,4-5.4,5.8-4.3
				c1,0.6-0.6,3.8-1.6,5.6c-2.1,3.6-5.7,6.7-9.3,9.5C346.8,23.1,349.1,18.8,350.8,16.6L350.8,16.6z M339.1,32.8
				c-1.4,1.3-4.2,3.6-5.5,2.4c-1.7-1.6,1.2-5.7,3.2-5.7c1.3,0,1.7,1.5,2.2,2.6V32L339.1,32.8z"/>
			<path id="element-id-70383" class="st0" d="M364.5,21.7c-0.9-0.3-2.4-0.3-2.9-0.1c-1.1,0.4-1.5,1.8-1.4,3
				c0.1,0.9,1.3,0.9,2.6,0.9C363.9,25.4,366.6,22.3,364.5,21.7L364.5,21.7z M356.4,29.3c-1.5,2.4-4.4,7.2-0.7,8.7
				c5.6,2.3,11.6-2.2,16.6-6.5c0.7-0.6,0-1.9-0.7-1.3c-4.1,3.6-10.5,7.6-11,5.8c-0.6-2,1.1-4.3,2.2-5.9
				C363.5,28.3,357.6,27.5,356.4,29.3z"/>
			<path id="element-id-46876" class="st0" d="M381.6,30.3c-0.4,0.8,0.4,1.5,1.1,1c1-1.3,2-2.8,1.8-4.3c-0.3-1.8-2.5-2.3-4.9-2.1
				c-4.6,0.4-8.5,2.8-8.6,7.7c-0.1,2.3,1.1,4.4,3.9,5.1c5.2,1.2,13.9-2.4,17.2-6.4c0.7-0.9-0.4-1.8-1.1-1c-2.9,2.9-9.5,6.7-13.4,5.4
				c-3.9-1.3,2-8.6,4.1-8.8c0.9-0.1,1.2,0.3,1.2,0.8C382.9,28.5,382,29.7,381.6,30.3L381.6,30.3z"/>
			<path id="element-id-95823" class="st0" d="M401.3,29c-2.6-2.4-7.5-0.9-10,0.9c-1.1,0.8-2.2,2.7-1.6,4.1c1.1,2.9,5.2,0.9,7.6-0.5
				c0.4-0.2,3.6-2,5-2.6c-0.1,1.2-0.6,2.4-0.5,3.6c0,0.4,0.1,0.7,0.2,1.1c0.5,1.6,2.8,2.6,4.7,2.6c5.5,0.2,10.7-4.3,13.3-7
				c0.4-0.9-0.5-1.5-1.2-1c-2.4,2.4-10.2,8.3-10.2,3.9c0-1.4,0.7-2.9,0.4-4.3c-0.8-2.5-5.1-1.3-7.4-0.4
				C401.4,29.3,401.4,29.2,401.3,29L401.3,29z M396.5,32.3c-2.1,1.2-4.4,2.2-4.9,1.3c-1.2-2.4,6.1-5,8.1-3.9l0.4,0.4
				C399.7,30.3,398.1,31.4,396.5,32.3L396.5,32.3z"/>
		</g>
		<g id="element-id-80278">
			<path id="element-id-46664" class="st1" d="M56.8,20.8c-3.3,0-6.2,1-8.8,2.9c2-2.6,2.9-5.6,2.9-8.9c0-4.1-1.5-7.7-4.4-10.6
				C43.6,1.3,40.1-0.2,36-0.2c-4.1,0-7.7,1.5-10.6,4.4C22.4,7.2,21,10.7,21,14.8c0,3.3,1,6.3,2.9,8.9c-2.6-2-5.6-2.9-8.9-2.9
				c-4.1,0-7.7,1.5-10.6,4.4C1.5,28.1,0,31.6,0,35.8c0,4.1,1.5,7.7,4.4,10.6c2.9,2.9,6.5,4.4,10.6,4.4c0,0,0,0,0.1,0
				c3.3,0,6.3-1,8.8-2.9c-2,2.6-2.9,5.6-2.9,8.9c0,4.1,1.5,7.7,4.4,10.6c2.9,2.9,6.5,4.4,10.6,4.4c4.1,0,7.7-1.5,10.6-4.4
				c2.9-2.9,4.4-6.5,4.4-10.6c0,0,0,0,0-0.1c0-3.3-1-6.3-2.9-8.9c2.6,2,5.6,2.9,8.9,2.9c4.1,0,7.7-1.5,10.6-4.4
				c2.9-2.9,4.4-6.5,4.4-10.6c0-4.1-1.5-7.7-4.4-10.6C64.6,22.3,61,20.8,56.8,20.8C56.9,20.8,56.9,20.8,56.8,20.8L56.8,20.8z
				 M57,22.5C57,22.5,56.9,22.5,57,22.5c-3.3,0-6.2,1.1-8.7,3.2c0,0-0.1,0.1-0.1,0.1s-0.1,0.1-0.1,0.1c-0.1,0-0.1,0-0.2,0
				c-0.1,0-0.1,0-0.2,0c-0.1,0-0.1,0-0.2,0c-0.1,0-0.1,0-0.2-0.1c-0.1,0-0.1,0-0.1-0.1c0,0-0.1-0.1-0.1-0.1L46,24.6
				c0,0-0.1-0.1-0.1-0.1c0,0-0.1-0.1-0.1-0.1c0-0.1,0-0.1-0.1-0.2c0-0.1,0-0.1,0-0.2c0-0.1,0-0.1,0-0.2c0-0.1,0-0.1,0-0.2
				c0-0.1,0-0.1,0.1-0.1c0,0,0.1-0.1,0.1-0.1c2.1-2.5,3.2-5.3,3.2-8.6c0-3.6-1.3-6.8-3.9-9.3c-2.6-2.6-5.7-3.9-9.4-3.9
				c-3.6,0-6.8,1.3-9.3,3.9c-2.6,2.6-3.9,5.7-3.9,9.3c0,3.3,1.1,6.1,3.2,8.6c0,0,0.1,0.1,0.1,0.1c0,0,0,0.1,0.1,0.1
				c0,0.1,0,0.1,0,0.2c0,0.1,0,0.1,0,0.2c0,0.1,0,0.1,0,0.2c0,0.1,0,0.1-0.1,0.2c0,0.1,0,0.1-0.1,0.1c0,0-0.1,0.1-0.1,0.1l-1.1,1.1
				c0,0-0.1,0.1-0.1,0.1c0,0-0.1,0.1-0.1,0.1c-0.1,0-0.1,0-0.2,0.1c-0.1,0-0.1,0-0.2,0c-0.1,0-0.1,0-0.2,0s-0.1,0-0.2,0
				c-0.1,0-0.1,0-0.1-0.1c0,0-0.1-0.1-0.1-0.1c-2.5-2.1-5.3-3.2-8.6-3.2c-3.6,0-6.8,1.3-9.3,3.9c-2.6,2.6-3.9,5.7-3.9,9.3
				c0,3.6,1.3,6.8,3.9,9.4c2.6,2.6,5.7,3.9,9.3,3.9c0,0,0,0,0.1,0c3.3,0,6.1-1.1,8.6-3.2c0,0,0.1-0.1,0.1-0.1c0,0,0.1-0.1,0.1-0.1
				c0.1,0,0.1,0,0.2,0c0.1,0,0.1,0,0.2,0c0.1,0,0.1,0,0.2,0c0.1,0,0.1,0,0.2,0.1c0.1,0,0.1,0,0.1,0.1c0,0,0.1,0.1,0.1,0.1l1.1,1.1
				c0,0,0.1,0.1,0.1,0.1c0,0,0.1,0.1,0.1,0.1c0,0.1,0,0.1,0.1,0.2c0,0.1,0,0.1,0,0.2c0,0.1,0,0.1,0,0.2c0,0.1,0,0.1,0,0.2
				c0,0.1,0,0.1-0.1,0.1c0,0-0.1,0.1-0.1,0.1c-2.1,2.5-3.2,5.3-3.2,8.6c0,3.6,1.3,6.8,3.9,9.3c2.6,2.6,5.7,3.9,9.4,3.9
				c3.6,0,6.8-1.3,9.4-3.9c2.6-2.6,3.9-5.7,3.9-9.3c0,0,0,0,0-0.1c0-3.3-1.1-6.1-3.2-8.6c0,0-0.1-0.1-0.1-0.1c0,0,0-0.1-0.1-0.1
				c0-0.1,0-0.1,0-0.2s0-0.1,0-0.2c0-0.1,0-0.1,0-0.2c0-0.1,0-0.1,0.1-0.2c0-0.1,0-0.1,0.1-0.1c0,0,0.1-0.1,0.1-0.1l1.1-1.1
				c0,0,0.1-0.1,0.1-0.1c0,0,0.1-0.1,0.1-0.1c0.1,0,0.1,0,0.2-0.1s0.1,0,0.2,0c0.1,0,0.1,0,0.2,0c0.1,0,0.1,0,0.2,0s0.1,0,0.1,0.1
				c0,0,0.1,0.1,0.1,0.1c2.5,2.1,5.3,3.2,8.6,3.2c3.6,0,6.8-1.3,9.3-3.9c2.6-2.6,3.9-5.7,3.9-9.3c0-3.6-1.3-6.8-3.9-9.4
				C63.7,23.9,60.6,22.6,57,22.5L57,22.5z M39.4,14.8c0,1-0.3,1.8-1,2.4l0,0c-0.1,0.1-0.1,0.2-0.2,0.3c0,0.1-0.1,0.2-0.1,0.3
				c0,0.1,0,0.2,0.1,0.3c0,0.1,0.1,0.2,0.2,0.3l3.1,3.1l0,0c0,0,0.1,0.1,0.1,0.1c0,0,0.1,0.1,0.2,0.1s0.1,0,0.2,0c0.1,0,0.1,0,0.2,0
				s0.1,0,0.2,0c0.1,0,0.1,0,0.2,0c0.1,0,0.1,0,0.2-0.1c0,0,0.1-0.1,0.1-0.1c1.9-1.9,2.8-4.1,2.8-6.8c0-2.6-0.9-4.9-2.8-6.8
				c-1.9-1.9-4.1-2.8-6.8-2.8c-2.6,0-4.9,0.9-6.8,2.8c-1.9,1.9-2.8,4.1-2.8,6.8v0c0,2.6,0.9,4.9,2.8,6.8l2.4,2.4L17.4,38.2
				c-0.7,0.7-1.5,1-2.5,1c0,0,0,0-0.1,0c-2.3,0-3.4-1.2-3.4-3.5c0-2.3,1.2-3.5,3.5-3.5c1,0,1.8,0.3,2.5,1c0,0,0.1,0.1,0.1,0.1
				c0,0,0.1,0.1,0.2,0.1c0.1,0,0.1,0,0.2,0c0.1,0,0.1,0,0.2,0s0.1,0,0.2,0c0.1,0,0.1,0,0.2,0c0.1,0,0.1,0,0.2-0.1
				c0,0,0.1-0.1,0.1-0.1l3.1-3.1l0,0c0,0,0.1-0.1,0.1-0.1c0,0,0.1-0.1,0.1-0.2s0-0.1,0-0.2c0-0.1,0-0.1,0-0.2s0-0.1,0-0.2
				c0-0.1,0-0.1,0-0.2c0-0.1,0-0.1-0.1-0.2c0,0-0.1-0.1-0.1-0.1c-1.9-1.9-4.1-2.8-6.8-2.8c-2.6,0-4.9,0.9-6.8,2.8
				c-1.9,1.9-2.8,4.1-2.8,6.8c0,2.6,0.9,4.9,2.8,6.8c1.9,1.9,4.1,2.8,6.8,2.8c0,0,0,0,0.1,0c2.6,0,4.8-0.9,6.7-2.8l2.4-2.4
				l14.2,14.2c0.7,0.7,1,1.5,1,2.5c0,0,0,0,0,0.1c0,2.3-1.2,3.4-3.5,3.4c-2.3,0-3.5-1.2-3.5-3.5c0-1,0.3-1.8,1-2.5
				c0,0,0.1-0.1,0.1-0.1c0,0,0.1-0.1,0.1-0.2c0-0.1,0-0.1,0-0.2c0-0.1,0-0.1,0-0.2c0-0.1,0-0.1,0-0.2c0-0.1,0-0.1,0-0.2
				c0-0.1,0-0.1-0.1-0.2c0,0-0.1-0.1-0.1-0.1L30.4,50c0,0-0.1-0.1-0.1-0.1c0,0-0.1-0.1-0.2-0.1c-0.1,0-0.1,0-0.2,0
				c-0.1,0-0.1,0-0.2,0c-0.1,0-0.1,0-0.2,0c-0.1,0-0.1,0-0.2,0c-0.1,0-0.1,0-0.2,0.1s-0.1,0.1-0.1,0.1c-1.9,1.9-2.8,4.1-2.8,6.8
				c0,2.6,0.9,4.9,2.8,6.8c1.9,1.9,4.1,2.8,6.8,2.8c2.6,0,4.9-0.9,6.8-2.8c1.9-1.9,2.8-4.1,2.8-6.8c0,0,0,0,0-0.1
				c0-2.6-0.9-4.8-2.8-6.7l-2.4-2.4l14.2-14.2c0.7-0.7,1.5-1,2.5-1c0,0,0,0,0.1,0c2.3,0,3.4,1.2,3.4,3.5c0,2.3-1.2,3.5-3.5,3.5
				c-1,0-1.8-0.3-2.4-1l0,0c0,0-0.1-0.1-0.1-0.1c0,0-0.1-0.1-0.2-0.1s-0.1,0-0.2,0c-0.1,0-0.1,0-0.2,0s-0.1,0-0.2,0
				c-0.1,0-0.1,0-0.2,0c-0.1,0-0.1,0-0.2,0.1c0,0-0.1,0.1-0.1,0.1l-3.1,3.1c0,0-0.1,0.1-0.1,0.1c0,0-0.1,0.1-0.1,0.2
				c0,0.1,0,0.1,0,0.2s0,0.1,0,0.2c0,0.1,0,0.1,0,0.2c0,0.1,0,0.1,0,0.2c0,0.1,0,0.1,0.1,0.2c0,0,0.1,0.1,0.1,0.1
				c1.9,1.9,4.1,2.8,6.8,2.8c2.6,0,4.9-0.9,6.8-2.8c1.9-1.9,2.8-4.1,2.8-6.8c0-2.6-0.9-4.9-2.8-6.8c-1.9-1.9-4.1-2.8-6.8-2.8
				c0,0,0,0-0.1,0c-2.6,0-4.8,0.9-6.7,2.8l-2.5,2.4L33.5,17.3c-0.7-0.7-1-1.5-1-2.4c0-2.3,1.2-3.5,3.5-3.5
				C38.3,11.4,39.4,12.5,39.4,14.8L39.4,14.8z M35.9,28.3l-7.4,7.4l7.4,7.4l7.4-7.4L35.9,28.3z"/>
		</g>
	</g>
</g>
</svg>
